<?xml version="1.0" encoding="UTF-8"?>
<svg xmlns="http://www.w3.org/2000/svg" xmlns:xlink="http://www.w3.org/1999/xlink" width="96pt" height="96pt" viewBox="0 0 96 96" version="1.1">
<g id="surface19692446">
<path style=" stroke:none;fill-rule:nonzero;fill:rgb(100%,100%,100%);fill-opacity:1;" d="M 24 8 L 24 23 C 24 24.882812 24.878906 26.65625 26.398438 27.796875 L 36 35 L 36 88 L 44 88 L 44 60 L 52 60 L 52 88 L 60 88 L 60 39.3125 L 72.03125 55.851562 L 78.5 51.140625 L 64.070312 31.296875 C 62.566406 29.222656 60.148438 28 57.59375 28 L 40 28 L 32 22 L 32 8 Z M 48 8 C 43.582031 8 40 11.582031 40 16 C 40 20.417969 43.582031 24 48 24 C 52.417969 24 56 20.417969 56 16 C 56 11.582031 52.417969 8 48 8 Z M 48 8 "/>
</g>
</svg>
